CddbId:4e125c19:[150, 17435, 27235, 39265, 53215, 65250, 82942, 103602, 121750, 135525, 152097, 164487, 177260, 211425, 229852, 249270, 258465, 277015, 294402, 300225, 310340, 314365, 317910, 331670, 340060]:352650:74:4e125c19 25 150 17435 27235 39265 53215 65250 82942 103602 121750 135525 152097 164487 177260 211425 229852 249270 258465 277015 294402 300225 310340 314365 317910 331670 340060 4702: 25 0 0 0 0 0 0 0 0 0 0 0 0 0 0 0 0 0 0 0 0 0 0 0 0 0 4702
num_tracks: 25
offsets: [150, 17435, 27235, 39265, 53215, 65250, 82942, 103602, 121750, 135525, 152097, 164487, 177260, 211425, 229852, 249270, 258465, 277015, 294402, 300225, 310340, 314365, 317910, 331670, 340060]
extents: [0, 0, 0, 0, 0, 0, 0, 0, 0, 0, 0, 0, 0, 0, 0, 0, 0, 0, 0, 0, 0, 0, 0, 0, 0]
total_length: 4702
cddb: [1309826073, 25, 150, 17435, 27235, 39265, 53215, 65250, 82942, 103602, 121750, 135525, 152097, 164487, 177260, 211425, 229852, 249270, 258465, 277015, 294402, 300225, 310340, 314365, 317910, 331670, 340060, 4702]
musicbrainz: ('25 150 17435 27235 39265 53215 65250 82942 103602 121750 135525 152097 164487 177260 211425 229852 249270 258465 277015 294402 300225 310340 314365 317910 331670 340060 352675', 'CzpDxiFQUcD2egd01xoIj554QDU-')

CD record:
Device type    : Removable CD-ROM
Version        : 0
Response Format: 1
Vendor_info    : 'SAMSUNG '
Identification : 'CD-ROM SC-148A  '
Revision       : 'B403'
Device seems to be: Generic mmc CD-ROM.
Using generic SCSI-3/mmc   CD-ROM driver (mmc_cd).
Driver flags   : MMC-2 SWABAUDIO 
Supported modes: 
first: 1 last 25
track:   1 lba:         0 (        0) 00:02:00 adr: 1 control: 0 mode: -1
track:   2 lba:     17285 (    69140) 03:52:35 adr: 1 control: 0 mode: -1
track:   3 lba:     27085 (   108340) 06:03:10 adr: 1 control: 0 mode: -1
track:   4 lba:     39115 (   156460) 08:43:40 adr: 1 control: 0 mode: -1
track:   5 lba:     53065 (   212260) 11:49:40 adr: 1 control: 0 mode: -1
track:   6 lba:     65100 (   260400) 14:30:00 adr: 1 control: 0 mode: -1
track:   7 lba:     82792 (   331168) 18:25:67 adr: 1 control: 0 mode: -1
track:   8 lba:    103452 (   413808) 23:01:27 adr: 1 control: 0 mode: -1
track:   9 lba:    121600 (   486400) 27:03:25 adr: 1 control: 0 mode: -1
track:  10 lba:    135375 (   541500) 30:07:00 adr: 1 control: 0 mode: -1
track:  11 lba:    151947 (   607788) 33:47:72 adr: 1 control: 0 mode: -1
track:  12 lba:    164337 (   657348) 36:33:12 adr: 1 control: 0 mode: -1
track:  13 lba:    177110 (   708440) 39:23:35 adr: 1 control: 0 mode: -1
track:  14 lba:    211275 (   845100) 46:59:00 adr: 1 control: 0 mode: -1
track:  15 lba:    229702 (   918808) 51:04:52 adr: 1 control: 0 mode: -1
track:  16 lba:    249120 (   996480) 55:23:45 adr: 1 control: 0 mode: -1
track:  17 lba:    258315 (  1033260) 57:26:15 adr: 1 control: 0 mode: -1
track:  18 lba:    276865 (  1107460) 61:33:40 adr: 1 control: 0 mode: -1
track:  19 lba:    294252 (  1177008) 65:25:27 adr: 1 control: 0 mode: -1
track:  20 lba:    300075 (  1200300) 66:43:00 adr: 1 control: 0 mode: -1
track:  21 lba:    310190 (  1240760) 68:57:65 adr: 1 control: 0 mode: -1
track:  22 lba:    314215 (  1256860) 69:51:40 adr: 1 control: 0 mode: -1
track:  23 lba:    317760 (  1271040) 70:38:60 adr: 1 control: 0 mode: -1
track:  24 lba:    331520 (  1326080) 73:42:20 adr: 1 control: 0 mode: -1
track:  25 lba:    339910 (  1359640) 75:34:10 adr: 1 control: 0 mode: -1
track:lout lba:    352525 (  1410100) 78:22:25 adr: 1 control: 0 mode: -1
